solid OpenSCAD_Model
  facet normal 1 -0 0
    outer loop
      vertex 33 -31 2.8
      vertex 33 0 1.2
      vertex 33 0 2.8
    endloop
  endfacet
  facet normal 1 0 0
    outer loop
      vertex 33 0 1.2
      vertex 33 -31 2.8
      vertex 33 -31 1.2
    endloop
  endfacet
  facet normal 0 -1 0
    outer loop
      vertex 0 -31 1.2
      vertex 33 -31 2.8
      vertex 0 -31 2.8
    endloop
  endfacet
  facet normal 0 -1 -0
    outer loop
      vertex 33 -31 2.8
      vertex 0 -31 1.2
      vertex 33 -31 1.2
    endloop
  endfacet
  facet normal 0 1 -0
    outer loop
      vertex 33 0 1.2
      vertex 0 0 2.8
      vertex 33 0 2.8
    endloop
  endfacet
  facet normal 0 1 0
    outer loop
      vertex 0 0 2.8
      vertex 33 0 1.2
      vertex 0 0 1.2
    endloop
  endfacet
  facet normal -1 0 0
    outer loop
      vertex 0 -31 1.2
      vertex 0 0 2.8
      vertex 0 0 1.2
    endloop
  endfacet
  facet normal -1 -0 0
    outer loop
      vertex 0 0 2.8
      vertex 0 -31 1.2
      vertex 0 -31 2.8
    endloop
  endfacet
  facet normal 0 0 1
    outer loop
      vertex 33 0 2.8
      vertex 31.8 -1.2 2.8
      vertex 33 -31 2.8
    endloop
  endfacet
  facet normal 0 0 1
    outer loop
      vertex 33 0 2.8
      vertex 1.2 -1.2 2.8
      vertex 31.8 -1.2 2.8
    endloop
  endfacet
  facet normal 0 0 1
    outer loop
      vertex 1.2 -1.2 2.8
      vertex 0 0 2.8
      vertex 1.2 -29.8 2.8
    endloop
  endfacet
  facet normal -0 0 1
    outer loop
      vertex 0 0 2.8
      vertex 1.2 -1.2 2.8
      vertex 33 0 2.8
    endloop
  endfacet
  facet normal -0 0 1
    outer loop
      vertex 31.8 -29.8 2.8
      vertex 33 -31 2.8
      vertex 31.8 -1.2 2.8
    endloop
  endfacet
  facet normal -0 0 1
    outer loop
      vertex 1.2 -29.8 2.8
      vertex 33 -31 2.8
      vertex 31.8 -29.8 2.8
    endloop
  endfacet
  facet normal 0 0 1
    outer loop
      vertex 1.2 -29.8 2.8
      vertex 0 -31 2.8
      vertex 33 -31 2.8
    endloop
  endfacet
  facet normal 0 0 1
    outer loop
      vertex 0 -31 2.8
      vertex 1.2 -29.8 2.8
      vertex 0 0 2.8
    endloop
  endfacet
  facet normal 0 0 -1
    outer loop
      vertex 33 -31 1.2
      vertex 31.8 -29.8 1.2
      vertex 33 0 1.2
    endloop
  endfacet
  facet normal 0 0 -1
    outer loop
      vertex 33 -31 1.2
      vertex 1.2 -29.8 1.2
      vertex 31.8 -29.8 1.2
    endloop
  endfacet
  facet normal -0 0 -1
    outer loop
      vertex 1.2 -29.8 1.2
      vertex 0 -31 1.2
      vertex 1.2 -1.2 1.2
    endloop
  endfacet
  facet normal 0 0 -1
    outer loop
      vertex 0 -31 1.2
      vertex 1.2 -29.8 1.2
      vertex 33 -31 1.2
    endloop
  endfacet
  facet normal 0 0 -1
    outer loop
      vertex 31.8 -1.2 1.2
      vertex 33 0 1.2
      vertex 31.8 -29.8 1.2
    endloop
  endfacet
  facet normal 0 0 -1
    outer loop
      vertex 1.2 -1.2 1.2
      vertex 33 0 1.2
      vertex 31.8 -1.2 1.2
    endloop
  endfacet
  facet normal 0 0 -1
    outer loop
      vertex 1.2 -1.2 1.2
      vertex 0 0 1.2
      vertex 33 0 1.2
    endloop
  endfacet
  facet normal 0 0 -1
    outer loop
      vertex 0 0 1.2
      vertex 1.2 -1.2 1.2
      vertex 0 -31 1.2
    endloop
  endfacet
  facet normal -1 0 0
    outer loop
      vertex 31.8 -29.8 1.2
      vertex 31.8 -1.2 2.8
      vertex 31.8 -1.2 1.2
    endloop
  endfacet
  facet normal -1 -0 0
    outer loop
      vertex 31.8 -1.2 2.8
      vertex 31.8 -29.8 1.2
      vertex 31.8 -29.8 2.8
    endloop
  endfacet
  facet normal 0 1 -0
    outer loop
      vertex 31.8 -29.8 1.2
      vertex 1.2 -29.8 2.8
      vertex 31.8 -29.8 2.8
    endloop
  endfacet
  facet normal 0 1 0
    outer loop
      vertex 1.2 -29.8 2.8
      vertex 31.8 -29.8 1.2
      vertex 1.2 -29.8 1.2
    endloop
  endfacet
  facet normal 0 -1 0
    outer loop
      vertex 1.2 -1.2 1.2
      vertex 31.8 -1.2 2.8
      vertex 1.2 -1.2 2.8
    endloop
  endfacet
  facet normal 0 -1 -0
    outer loop
      vertex 31.8 -1.2 2.8
      vertex 1.2 -1.2 1.2
      vertex 31.8 -1.2 1.2
    endloop
  endfacet
  facet normal 1 -0 0
    outer loop
      vertex 1.2 -29.8 2.8
      vertex 1.2 -1.2 1.2
      vertex 1.2 -1.2 2.8
    endloop
  endfacet
  facet normal 1 0 0
    outer loop
      vertex 1.2 -1.2 1.2
      vertex 1.2 -29.8 2.8
      vertex 1.2 -29.8 1.2
    endloop
  endfacet
  facet normal 1 -0 0
    outer loop
      vertex 35 -33 1.2
      vertex 35 2 0
      vertex 35 2 1.2
    endloop
  endfacet
  facet normal 1 0 0
    outer loop
      vertex 35 2 0
      vertex 35 -33 1.2
      vertex 35 -33 0
    endloop
  endfacet
  facet normal 0 -1 0
    outer loop
      vertex -2 -33 0
      vertex 35 -33 1.2
      vertex -2 -33 1.2
    endloop
  endfacet
  facet normal 0 -1 -0
    outer loop
      vertex 35 -33 1.2
      vertex -2 -33 0
      vertex 35 -33 0
    endloop
  endfacet
  facet normal 0 1 -0
    outer loop
      vertex 35 2 0
      vertex -2 2 1.2
      vertex 35 2 1.2
    endloop
  endfacet
  facet normal 0 1 0
    outer loop
      vertex -2 2 1.2
      vertex 35 2 0
      vertex -2 2 0
    endloop
  endfacet
  facet normal -1 0 0
    outer loop
      vertex -2 -33 0
      vertex -2 2 1.2
      vertex -2 2 0
    endloop
  endfacet
  facet normal -1 -0 0
    outer loop
      vertex -2 2 1.2
      vertex -2 -33 0
      vertex -2 -33 1.2
    endloop
  endfacet
  facet normal -0 0 1
    outer loop
      vertex -2 2 1.2
      vertex 35 -33 1.2
      vertex 35 2 1.2
    endloop
  endfacet
  facet normal 0 0 1
    outer loop
      vertex 35 -33 1.2
      vertex -2 2 1.2
      vertex -2 -33 1.2
    endloop
  endfacet
  facet normal 0 0 -1
    outer loop
      vertex -2 -33 0
      vertex 35 2 0
      vertex 35 -33 0
    endloop
  endfacet
  facet normal -0 0 -1
    outer loop
      vertex 35 2 0
      vertex -2 -33 0
      vertex -2 2 0
    endloop
  endfacet
endsolid OpenSCAD_Model
