solid OpenSCAD_Model
  facet normal 1 -0 0
    outer loop
      vertex 45.2 -52.8 3.8
      vertex 45.2 0 1.6
      vertex 45.2 0 3.8
    endloop
  endfacet
  facet normal 1 0 0
    outer loop
      vertex 45.2 0 1.6
      vertex 45.2 -52.8 3.8
      vertex 45.2 -52.8 1.6
    endloop
  endfacet
  facet normal 0 -1 0
    outer loop
      vertex 0 -52.8 1.6
      vertex 45.2 -52.8 3.8
      vertex 0 -52.8 3.8
    endloop
  endfacet
  facet normal 0 -1 -0
    outer loop
      vertex 45.2 -52.8 3.8
      vertex 0 -52.8 1.6
      vertex 45.2 -52.8 1.6
    endloop
  endfacet
  facet normal 0 1 -0
    outer loop
      vertex 45.2 0 1.6
      vertex 0 0 3.8
      vertex 45.2 0 3.8
    endloop
  endfacet
  facet normal 0 1 0
    outer loop
      vertex 0 0 3.8
      vertex 45.2 0 1.6
      vertex 0 0 1.6
    endloop
  endfacet
  facet normal -1 0 0
    outer loop
      vertex 0 -52.8 1.6
      vertex 0 0 3.8
      vertex 0 0 1.6
    endloop
  endfacet
  facet normal -1 -0 0
    outer loop
      vertex 0 0 3.8
      vertex 0 -52.8 1.6
      vertex 0 -52.8 3.8
    endloop
  endfacet
  facet normal 0 0 1
    outer loop
      vertex 45.2 0 3.8
      vertex 43.6 -1.6 3.8
      vertex 45.2 -52.8 3.8
    endloop
  endfacet
  facet normal 0 0 1
    outer loop
      vertex 45.2 0 3.8
      vertex 1.6 -1.6 3.8
      vertex 43.6 -1.6 3.8
    endloop
  endfacet
  facet normal 0 0 1
    outer loop
      vertex 1.6 -1.6 3.8
      vertex 0 0 3.8
      vertex 1.6 -51.2 3.8
    endloop
  endfacet
  facet normal -0 0 1
    outer loop
      vertex 0 0 3.8
      vertex 1.6 -1.6 3.8
      vertex 45.2 0 3.8
    endloop
  endfacet
  facet normal -0 0 1
    outer loop
      vertex 43.6 -51.2 3.8
      vertex 45.2 -52.8 3.8
      vertex 43.6 -1.6 3.8
    endloop
  endfacet
  facet normal -0 0 1
    outer loop
      vertex 1.6 -51.2 3.8
      vertex 45.2 -52.8 3.8
      vertex 43.6 -51.2 3.8
    endloop
  endfacet
  facet normal 0 0 1
    outer loop
      vertex 1.6 -51.2 3.8
      vertex 0 -52.8 3.8
      vertex 45.2 -52.8 3.8
    endloop
  endfacet
  facet normal 0 0 1
    outer loop
      vertex 0 -52.8 3.8
      vertex 1.6 -51.2 3.8
      vertex 0 0 3.8
    endloop
  endfacet
  facet normal 0 0 -1
    outer loop
      vertex 45.2 -52.8 1.6
      vertex 43.6 -51.2 1.6
      vertex 45.2 0 1.6
    endloop
  endfacet
  facet normal 0 0 -1
    outer loop
      vertex 45.2 -52.8 1.6
      vertex 1.6 -51.2 1.6
      vertex 43.6 -51.2 1.6
    endloop
  endfacet
  facet normal -0 0 -1
    outer loop
      vertex 1.6 -51.2 1.6
      vertex 0 -52.8 1.6
      vertex 1.6 -1.6 1.6
    endloop
  endfacet
  facet normal 0 0 -1
    outer loop
      vertex 0 -52.8 1.6
      vertex 1.6 -51.2 1.6
      vertex 45.2 -52.8 1.6
    endloop
  endfacet
  facet normal 0 0 -1
    outer loop
      vertex 43.6 -1.6 1.6
      vertex 45.2 0 1.6
      vertex 43.6 -51.2 1.6
    endloop
  endfacet
  facet normal 0 0 -1
    outer loop
      vertex 1.6 -1.6 1.6
      vertex 45.2 0 1.6
      vertex 43.6 -1.6 1.6
    endloop
  endfacet
  facet normal 0 0 -1
    outer loop
      vertex 1.6 -1.6 1.6
      vertex 0 0 1.6
      vertex 45.2 0 1.6
    endloop
  endfacet
  facet normal 0 0 -1
    outer loop
      vertex 0 0 1.6
      vertex 1.6 -1.6 1.6
      vertex 0 -52.8 1.6
    endloop
  endfacet
  facet normal -1 0 0
    outer loop
      vertex 43.6 -51.2 1.6
      vertex 43.6 -1.6 3.8
      vertex 43.6 -1.6 1.6
    endloop
  endfacet
  facet normal -1 -0 0
    outer loop
      vertex 43.6 -1.6 3.8
      vertex 43.6 -51.2 1.6
      vertex 43.6 -51.2 3.8
    endloop
  endfacet
  facet normal 0 1 -0
    outer loop
      vertex 43.6 -51.2 1.6
      vertex 1.6 -51.2 3.8
      vertex 43.6 -51.2 3.8
    endloop
  endfacet
  facet normal 0 1 0
    outer loop
      vertex 1.6 -51.2 3.8
      vertex 43.6 -51.2 1.6
      vertex 1.6 -51.2 1.6
    endloop
  endfacet
  facet normal 0 -1 0
    outer loop
      vertex 1.6 -1.6 1.6
      vertex 43.6 -1.6 3.8
      vertex 1.6 -1.6 3.8
    endloop
  endfacet
  facet normal 0 -1 -0
    outer loop
      vertex 43.6 -1.6 3.8
      vertex 1.6 -1.6 1.6
      vertex 43.6 -1.6 1.6
    endloop
  endfacet
  facet normal 1 -0 0
    outer loop
      vertex 1.6 -51.2 3.8
      vertex 1.6 -1.6 1.6
      vertex 1.6 -1.6 3.8
    endloop
  endfacet
  facet normal 1 0 0
    outer loop
      vertex 1.6 -1.6 1.6
      vertex 1.6 -51.2 3.8
      vertex 1.6 -51.2 1.6
    endloop
  endfacet
  facet normal 1 -0 0
    outer loop
      vertex 48.2 -55.8 1.6
      vertex 48.2 3 0
      vertex 48.2 3 1.6
    endloop
  endfacet
  facet normal 1 0 0
    outer loop
      vertex 48.2 3 0
      vertex 48.2 -55.8 1.6
      vertex 48.2 -55.8 0
    endloop
  endfacet
  facet normal 0 -1 0
    outer loop
      vertex -3 -55.8 0
      vertex 48.2 -55.8 1.6
      vertex -3 -55.8 1.6
    endloop
  endfacet
  facet normal 0 -1 -0
    outer loop
      vertex 48.2 -55.8 1.6
      vertex -3 -55.8 0
      vertex 48.2 -55.8 0
    endloop
  endfacet
  facet normal 0 1 -0
    outer loop
      vertex 48.2 3 0
      vertex -3 3 1.6
      vertex 48.2 3 1.6
    endloop
  endfacet
  facet normal 0 1 0
    outer loop
      vertex -3 3 1.6
      vertex 48.2 3 0
      vertex -3 3 0
    endloop
  endfacet
  facet normal -1 0 0
    outer loop
      vertex -3 -55.8 0
      vertex -3 3 1.6
      vertex -3 3 0
    endloop
  endfacet
  facet normal -1 -0 0
    outer loop
      vertex -3 3 1.6
      vertex -3 -55.8 0
      vertex -3 -55.8 1.6
    endloop
  endfacet
  facet normal 0 0 1
    outer loop
      vertex 48.2 3 1.6
      vertex 41.6 -38.8 1.6
      vertex 48.2 -55.8 1.6
    endloop
  endfacet
  facet normal -0 0 1
    outer loop
      vertex 24.9097 -8.95671 1.6
      vertex 41.6 -38.8 1.6
      vertex 48.2 3 1.6
    endloop
  endfacet
  facet normal 0 0 1
    outer loop
      vertex 38.6 -38.8 1.6
      vertex 33.6 -38.8 1.6
      vertex 38.6 -48.8 1.6
    endloop
  endfacet
  facet normal -0 0 1
    outer loop
      vertex 24.7651 -9.25 1.6
      vertex 41.6 -38.8 1.6
      vertex 24.9097 -8.95671 1.6
    endloop
  endfacet
  facet normal 0 0 1
    outer loop
      vertex 41.6 -38.8 1.6
      vertex 24.5834 -9.5219 1.6
      vertex 38.6 -38.8 1.6
    endloop
  endfacet
  facet normal 0 0 1
    outer loop
      vertex 30.6 -38.8 1.6
      vertex 25.6 -38.8 1.6
      vertex 30.6 -48.8 1.6
    endloop
  endfacet
  facet normal -0 0 1
    outer loop
      vertex 24.3678 -9.76777 1.6
      vertex 38.6 -38.8 1.6
      vertex 24.5834 -9.5219 1.6
    endloop
  endfacet
  facet normal 0 0 1
    outer loop
      vertex 25.0786 -8.32631 1.6
      vertex 48.2 3 1.6
      vertex 25.1 -8 1.6
    endloop
  endfacet
  facet normal 0 0 1
    outer loop
      vertex 48.2 3 1.6
      vertex 25.0786 -7.67368 1.6
      vertex 25.1 -8 1.6
    endloop
  endfacet
  facet normal 0 0 1
    outer loop
      vertex 48.2 3 1.6
      vertex 25.0148 -7.35295 1.6
      vertex 25.0786 -7.67368 1.6
    endloop
  endfacet
  facet normal 0 0 1
    outer loop
      vertex 48.2 3 1.6
      vertex 24.9097 -7.04329 1.6
      vertex 25.0148 -7.35295 1.6
    endloop
  endfacet
  facet normal 0 0 1
    outer loop
      vertex 48.2 3 1.6
      vertex 24.7651 -6.75 1.6
      vertex 24.9097 -7.04329 1.6
    endloop
  endfacet
  facet normal 0 0 1
    outer loop
      vertex 48.2 3 1.6
      vertex 24.5834 -6.4781 1.6
      vertex 24.7651 -6.75 1.6
    endloop
  endfacet
  facet normal 0 0 1
    outer loop
      vertex 48.2 3 1.6
      vertex 24.3678 -6.23223 1.6
      vertex 24.5834 -6.4781 1.6
    endloop
  endfacet
  facet normal 0 0 1
    outer loop
      vertex 48.2 3 1.6
      vertex 24.1219 -6.01662 1.6
      vertex 24.3678 -6.23223 1.6
    endloop
  endfacet
  facet normal 0 0 1
    outer loop
      vertex 48.2 3 1.6
      vertex 23.85 -5.83494 1.6
      vertex 24.1219 -6.01662 1.6
    endloop
  endfacet
  facet normal 0 0 1
    outer loop
      vertex 48.2 3 1.6
      vertex 23.5567 -5.6903 1.6
      vertex 23.85 -5.83494 1.6
    endloop
  endfacet
  facet normal 0 0 1
    outer loop
      vertex 48.2 3 1.6
      vertex 23.247 -5.58519 1.6
      vertex 23.5567 -5.6903 1.6
    endloop
  endfacet
  facet normal 0 0 1
    outer loop
      vertex 48.2 3 1.6
      vertex 22.9263 -5.52139 1.6
      vertex 23.247 -5.58519 1.6
    endloop
  endfacet
  facet normal 0 0 1
    outer loop
      vertex 48.2 3 1.6
      vertex 22.6 -5.5 1.6
      vertex 22.9263 -5.52139 1.6
    endloop
  endfacet
  facet normal -0 0 1
    outer loop
      vertex -3 3 1.6
      vertex 22.6 -5.5 1.6
      vertex 48.2 3 1.6
    endloop
  endfacet
  facet normal 0 0 1
    outer loop
      vertex 22.6 -5.5 1.6
      vertex -3 3 1.6
      vertex 22.2737 -5.52139 1.6
    endloop
  endfacet
  facet normal 0 0 1
    outer loop
      vertex -3 3 1.6
      vertex 20.1 -8 1.6
      vertex 20.1214 -7.67368 1.6
    endloop
  endfacet
  facet normal 0 0 1
    outer loop
      vertex 20.1 -8 1.6
      vertex 14.6 -38.8 1.6
      vertex 17.6 -38.8 1.6
    endloop
  endfacet
  facet normal 0 0 1
    outer loop
      vertex 14.6 -38.8 1.6
      vertex 9.6 -38.8 1.6
      vertex 14.6 -48.8 1.6
    endloop
  endfacet
  facet normal 0 0 1
    outer loop
      vertex 20.1 -8 1.6
      vertex 9.6 -38.8 1.6
      vertex 14.6 -38.8 1.6
    endloop
  endfacet
  facet normal 0 0 1
    outer loop
      vertex -3 3 1.6
      vertex 20.1214 -7.67368 1.6
      vertex 20.1852 -7.35295 1.6
    endloop
  endfacet
  facet normal 0 0 1
    outer loop
      vertex 20.1 -8 1.6
      vertex 6.6 -38.8 1.6
      vertex 9.6 -38.8 1.6
    endloop
  endfacet
  facet normal 0 0 1
    outer loop
      vertex -3 3 1.6
      vertex 20.1852 -7.35295 1.6
      vertex 20.2903 -7.04329 1.6
    endloop
  endfacet
  facet normal 0 0 1
    outer loop
      vertex -3 -55.8 1.6
      vertex 6.6 -38.8 1.6
      vertex -3 3 1.6
    endloop
  endfacet
  facet normal 0 0 1
    outer loop
      vertex 20.1 -8 1.6
      vertex -3 3 1.6
      vertex 6.6 -38.8 1.6
    endloop
  endfacet
  facet normal 0 0 1
    outer loop
      vertex 20.4349 -6.75 1.6
      vertex -3 3 1.6
      vertex 20.2903 -7.04329 1.6
    endloop
  endfacet
  facet normal 0 0 1
    outer loop
      vertex 20.6166 -6.4781 1.6
      vertex -3 3 1.6
      vertex 20.4349 -6.75 1.6
    endloop
  endfacet
  facet normal 0 0 1
    outer loop
      vertex 20.8322 -6.23223 1.6
      vertex -3 3 1.6
      vertex 20.6166 -6.4781 1.6
    endloop
  endfacet
  facet normal 0 0 1
    outer loop
      vertex 21.0781 -6.01662 1.6
      vertex -3 3 1.6
      vertex 20.8322 -6.23223 1.6
    endloop
  endfacet
  facet normal 0 0 1
    outer loop
      vertex 21.35 -5.83494 1.6
      vertex -3 3 1.6
      vertex 21.0781 -6.01662 1.6
    endloop
  endfacet
  facet normal 0 0 1
    outer loop
      vertex 21.6433 -5.6903 1.6
      vertex -3 3 1.6
      vertex 21.35 -5.83494 1.6
    endloop
  endfacet
  facet normal 0 0 1
    outer loop
      vertex 21.953 -5.58519 1.6
      vertex -3 3 1.6
      vertex 21.6433 -5.6903 1.6
    endloop
  endfacet
  facet normal 0 0 1
    outer loop
      vertex 22.2737 -5.52139 1.6
      vertex -3 3 1.6
      vertex 21.953 -5.58519 1.6
    endloop
  endfacet
  facet normal -0 0 1
    outer loop
      vertex 41.6 -48.8 1.6
      vertex 48.2 -55.8 1.6
      vertex 41.6 -38.8 1.6
    endloop
  endfacet
  facet normal -0 0 1
    outer loop
      vertex 38.6 -48.8 1.6
      vertex 48.2 -55.8 1.6
      vertex 41.6 -48.8 1.6
    endloop
  endfacet
  facet normal 0 0 1
    outer loop
      vertex 33.6 -48.8 1.6
      vertex 38.6 -48.8 1.6
      vertex 33.6 -38.8 1.6
    endloop
  endfacet
  facet normal -0 0 1
    outer loop
      vertex 33.6 -48.8 1.6
      vertex 48.2 -55.8 1.6
      vertex 38.6 -48.8 1.6
    endloop
  endfacet
  facet normal -0 0 1
    outer loop
      vertex 30.6 -48.8 1.6
      vertex 48.2 -55.8 1.6
      vertex 33.6 -48.8 1.6
    endloop
  endfacet
  facet normal 0 0 1
    outer loop
      vertex 25.6 -48.8 1.6
      vertex 30.6 -48.8 1.6
      vertex 25.6 -38.8 1.6
    endloop
  endfacet
  facet normal -0 0 1
    outer loop
      vertex 25.6 -48.8 1.6
      vertex 48.2 -55.8 1.6
      vertex 30.6 -48.8 1.6
    endloop
  endfacet
  facet normal -0 0 1
    outer loop
      vertex 22.6 -48.8 1.6
      vertex 48.2 -55.8 1.6
      vertex 25.6 -48.8 1.6
    endloop
  endfacet
  facet normal 0 0 1
    outer loop
      vertex 22.2737 -10.4786 1.6
      vertex 17.6 -38.8 1.6
      vertex 22.6 -38.8 1.6
    endloop
  endfacet
  facet normal 0 0 1
    outer loop
      vertex 17.6 -38.8 1.6
      vertex 21.953 -10.4148 1.6
      vertex 21.6433 -10.3097 1.6
    endloop
  endfacet
  facet normal 0 0 1
    outer loop
      vertex 17.6 -38.8 1.6
      vertex 21.6433 -10.3097 1.6
      vertex 21.35 -10.1651 1.6
    endloop
  endfacet
  facet normal 0 0 1
    outer loop
      vertex 17.6 -38.8 1.6
      vertex 21.35 -10.1651 1.6
      vertex 21.0781 -9.98338 1.6
    endloop
  endfacet
  facet normal 0 0 1
    outer loop
      vertex 17.6 -38.8 1.6
      vertex 21.0781 -9.98338 1.6
      vertex 20.8322 -9.76777 1.6
    endloop
  endfacet
  facet normal 0 0 1
    outer loop
      vertex 17.6 -38.8 1.6
      vertex 20.8322 -9.76777 1.6
      vertex 20.6166 -9.5219 1.6
    endloop
  endfacet
  facet normal 0 0 1
    outer loop
      vertex 17.6 -38.8 1.6
      vertex 20.6166 -9.5219 1.6
      vertex 20.4349 -9.25 1.6
    endloop
  endfacet
  facet normal 0 0 1
    outer loop
      vertex 17.6 -38.8 1.6
      vertex 20.4349 -9.25 1.6
      vertex 20.2903 -8.95671 1.6
    endloop
  endfacet
  facet normal 0 0 1
    outer loop
      vertex 17.6 -38.8 1.6
      vertex 20.2903 -8.95671 1.6
      vertex 20.1852 -8.64705 1.6
    endloop
  endfacet
  facet normal 0 0 1
    outer loop
      vertex 17.6 -38.8 1.6
      vertex 20.1852 -8.64705 1.6
      vertex 20.1214 -8.32631 1.6
    endloop
  endfacet
  facet normal 0 0 1
    outer loop
      vertex 17.6 -38.8 1.6
      vertex 20.1214 -8.32631 1.6
      vertex 20.1 -8 1.6
    endloop
  endfacet
  facet normal 0 0 1
    outer loop
      vertex 22.6 -38.8 1.6
      vertex 17.6 -38.8 1.6
      vertex 22.6 -48.8 1.6
    endloop
  endfacet
  facet normal 0 0 1
    outer loop
      vertex 17.6 -48.8 1.6
      vertex 22.6 -48.8 1.6
      vertex 17.6 -38.8 1.6
    endloop
  endfacet
  facet normal 0 0 1
    outer loop
      vertex -3 -55.8 1.6
      vertex 22.6 -48.8 1.6
      vertex 17.6 -48.8 1.6
    endloop
  endfacet
  facet normal 0 0 1
    outer loop
      vertex -3 -55.8 1.6
      vertex 17.6 -48.8 1.6
      vertex 14.6 -48.8 1.6
    endloop
  endfacet
  facet normal 0 0 1
    outer loop
      vertex 9.6 -48.8 1.6
      vertex 14.6 -48.8 1.6
      vertex 9.6 -38.8 1.6
    endloop
  endfacet
  facet normal 0 0 1
    outer loop
      vertex -3 -55.8 1.6
      vertex 14.6 -48.8 1.6
      vertex 9.6 -48.8 1.6
    endloop
  endfacet
  facet normal 0 0 1
    outer loop
      vertex -3 -55.8 1.6
      vertex 9.6 -48.8 1.6
      vertex 6.6 -48.8 1.6
    endloop
  endfacet
  facet normal 0 0 1
    outer loop
      vertex 22.6 -48.8 1.6
      vertex -3 -55.8 1.6
      vertex 48.2 -55.8 1.6
    endloop
  endfacet
  facet normal 0 0 1
    outer loop
      vertex 6.6 -38.8 1.6
      vertex -3 -55.8 1.6
      vertex 6.6 -48.8 1.6
    endloop
  endfacet
  facet normal 0 0 1
    outer loop
      vertex 25.0148 -8.64705 1.6
      vertex 48.2 3 1.6
      vertex 25.0786 -8.32631 1.6
    endloop
  endfacet
  facet normal 0 0 1
    outer loop
      vertex 24.9097 -8.95671 1.6
      vertex 48.2 3 1.6
      vertex 25.0148 -8.64705 1.6
    endloop
  endfacet
  facet normal -0 0 1
    outer loop
      vertex 24.5834 -9.5219 1.6
      vertex 41.6 -38.8 1.6
      vertex 24.7651 -9.25 1.6
    endloop
  endfacet
  facet normal 0 0 1
    outer loop
      vertex 38.6 -38.8 1.6
      vertex 24.3678 -9.76777 1.6
      vertex 33.6 -38.8 1.6
    endloop
  endfacet
  facet normal -0 0 1
    outer loop
      vertex 24.1219 -9.98338 1.6
      vertex 33.6 -38.8 1.6
      vertex 24.3678 -9.76777 1.6
    endloop
  endfacet
  facet normal -0 0 1
    outer loop
      vertex 23.85 -10.1651 1.6
      vertex 33.6 -38.8 1.6
      vertex 24.1219 -9.98338 1.6
    endloop
  endfacet
  facet normal 0 0 1
    outer loop
      vertex 33.6 -38.8 1.6
      vertex 23.85 -10.1651 1.6
      vertex 30.6 -38.8 1.6
    endloop
  endfacet
  facet normal -0 0 1
    outer loop
      vertex 23.5567 -10.3097 1.6
      vertex 30.6 -38.8 1.6
      vertex 23.85 -10.1651 1.6
    endloop
  endfacet
  facet normal 0 0 1
    outer loop
      vertex 30.6 -38.8 1.6
      vertex 23.5567 -10.3097 1.6
      vertex 25.6 -38.8 1.6
    endloop
  endfacet
  facet normal -0 0 1
    outer loop
      vertex 23.247 -10.4148 1.6
      vertex 25.6 -38.8 1.6
      vertex 23.5567 -10.3097 1.6
    endloop
  endfacet
  facet normal -0 0 1
    outer loop
      vertex 22.9263 -10.4786 1.6
      vertex 25.6 -38.8 1.6
      vertex 23.247 -10.4148 1.6
    endloop
  endfacet
  facet normal 0 0 1
    outer loop
      vertex 22.6 -38.8 1.6
      vertex 22.9263 -10.4786 1.6
      vertex 22.6 -10.5 1.6
    endloop
  endfacet
  facet normal 0 0 1
    outer loop
      vertex 22.9263 -10.4786 1.6
      vertex 22.6 -38.8 1.6
      vertex 25.6 -38.8 1.6
    endloop
  endfacet
  facet normal 0 0 1
    outer loop
      vertex 22.2737 -10.4786 1.6
      vertex 22.6 -38.8 1.6
      vertex 22.6 -10.5 1.6
    endloop
  endfacet
  facet normal 0 0 1
    outer loop
      vertex 17.6 -38.8 1.6
      vertex 22.2737 -10.4786 1.6
      vertex 21.953 -10.4148 1.6
    endloop
  endfacet
  facet normal 0 0 -1
    outer loop
      vertex 48.2 3 0
      vertex 25.0786 -8.32631 0
      vertex 25.1 -8 0
    endloop
  endfacet
  facet normal 0 0 -1
    outer loop
      vertex 30.6 -38.8 0
      vertex 25.0148 -8.64705 0
      vertex 25.0786 -8.32631 0
    endloop
  endfacet
  facet normal 0 0 -1
    outer loop
      vertex 30.6 -38.8 0
      vertex 24.9097 -8.95671 0
      vertex 25.0148 -8.64705 0
    endloop
  endfacet
  facet normal 0 0 -1
    outer loop
      vertex 30.6 -38.8 0
      vertex 24.7651 -9.25 0
      vertex 24.9097 -8.95671 0
    endloop
  endfacet
  facet normal 0 0 -1
    outer loop
      vertex 30.6 -38.8 0
      vertex 24.5834 -9.5219 0
      vertex 24.7651 -9.25 0
    endloop
  endfacet
  facet normal 0 0 -1
    outer loop
      vertex 30.6 -38.8 0
      vertex 24.3678 -9.76777 0
      vertex 24.5834 -9.5219 0
    endloop
  endfacet
  facet normal 0 0 -1
    outer loop
      vertex 30.6 -38.8 0
      vertex 24.1219 -9.98338 0
      vertex 24.3678 -9.76777 0
    endloop
  endfacet
  facet normal 0 0 -1
    outer loop
      vertex 30.6 -38.8 0
      vertex 23.85 -10.1651 0
      vertex 24.1219 -9.98338 0
    endloop
  endfacet
  facet normal 0 0 -1
    outer loop
      vertex 30.6 -38.8 0
      vertex 23.5567 -10.3097 0
      vertex 23.85 -10.1651 0
    endloop
  endfacet
  facet normal 0 0 -1
    outer loop
      vertex 25.6 -38.8 0
      vertex 23.247 -10.4148 0
      vertex 23.5567 -10.3097 0
    endloop
  endfacet
  facet normal 0 0 -1
    outer loop
      vertex 25.6 -38.8 0
      vertex 22.9263 -10.4786 0
      vertex 23.247 -10.4148 0
    endloop
  endfacet
  facet normal 0 0 -1
    outer loop
      vertex 22.6 -38.8 0
      vertex 22.9263 -10.4786 0
      vertex 25.6 -38.8 0
    endloop
  endfacet
  facet normal 0 0 -1
    outer loop
      vertex 22.9263 -10.4786 0
      vertex 22.6 -38.8 0
      vertex 22.6 -10.5 0
    endloop
  endfacet
  facet normal 0 0 -1
    outer loop
      vertex 41.6 -38.8 0
      vertex 48.2 -55.8 0
      vertex 41.6 -48.8 0
    endloop
  endfacet
  facet normal 0 0 -1
    outer loop
      vertex 48.2 -55.8 0
      vertex 38.6 -48.8 0
      vertex 41.6 -48.8 0
    endloop
  endfacet
  facet normal 0 0 -1
    outer loop
      vertex 38.6 -48.8 0
      vertex 33.6 -48.8 0
      vertex 38.6 -38.8 0
    endloop
  endfacet
  facet normal 0 0 -1
    outer loop
      vertex 48.2 -55.8 0
      vertex 33.6 -48.8 0
      vertex 38.6 -48.8 0
    endloop
  endfacet
  facet normal 0 0 -1
    outer loop
      vertex 48.2 -55.8 0
      vertex 30.6 -48.8 0
      vertex 33.6 -48.8 0
    endloop
  endfacet
  facet normal 0 0 -1
    outer loop
      vertex 30.6 -48.8 0
      vertex 25.6 -48.8 0
      vertex 30.6 -38.8 0
    endloop
  endfacet
  facet normal 0 0 -1
    outer loop
      vertex 48.2 -55.8 0
      vertex 25.6 -48.8 0
      vertex 30.6 -48.8 0
    endloop
  endfacet
  facet normal 0 0 -1
    outer loop
      vertex 48.2 -55.8 0
      vertex 22.6 -48.8 0
      vertex 25.6 -48.8 0
    endloop
  endfacet
  facet normal 0 0 -1
    outer loop
      vertex 17.6 -38.8 0
      vertex 22.6 -38.8 0
      vertex 22.6 -48.8 0
    endloop
  endfacet
  facet normal 0 -0 -1
    outer loop
      vertex 22.2737 -10.4786 0
      vertex 22.6 -38.8 0
      vertex 17.6 -38.8 0
    endloop
  endfacet
  facet normal 0 0 -1
    outer loop
      vertex 22.6 -38.8 0
      vertex 22.2737 -10.4786 0
      vertex 22.6 -10.5 0
    endloop
  endfacet
  facet normal -0 0 -1
    outer loop
      vertex 22.2737 -10.4786 0
      vertex 17.6 -38.8 0
      vertex 21.953 -10.4148 0
    endloop
  endfacet
  facet normal -0 0 -1
    outer loop
      vertex 21.953 -10.4148 0
      vertex 17.6 -38.8 0
      vertex 21.6433 -10.3097 0
    endloop
  endfacet
  facet normal 0 0 -1
    outer loop
      vertex 14.6 -38.8 0
      vertex 21.6433 -10.3097 0
      vertex 17.6 -38.8 0
    endloop
  endfacet
  facet normal -0 0 -1
    outer loop
      vertex 21.6433 -10.3097 0
      vertex 14.6 -38.8 0
      vertex 21.35 -10.1651 0
    endloop
  endfacet
  facet normal -0 0 -1
    outer loop
      vertex 21.35 -10.1651 0
      vertex 14.6 -38.8 0
      vertex 21.0781 -9.98338 0
    endloop
  endfacet
  facet normal 0 0 -1
    outer loop
      vertex 9.6 -38.8 0
      vertex 21.0781 -9.98338 0
      vertex 14.6 -38.8 0
    endloop
  endfacet
  facet normal -0 0 -1
    outer loop
      vertex 21.0781 -9.98338 0
      vertex 9.6 -38.8 0
      vertex 20.8322 -9.76777 0
    endloop
  endfacet
  facet normal 0 0 -1
    outer loop
      vertex 6.6 -38.8 0
      vertex 20.8322 -9.76777 0
      vertex 9.6 -38.8 0
    endloop
  endfacet
  facet normal -0 0 -1
    outer loop
      vertex 20.8322 -9.76777 0
      vertex 6.6 -38.8 0
      vertex 20.6166 -9.5219 0
    endloop
  endfacet
  facet normal -0 0 -1
    outer loop
      vertex 20.6166 -9.5219 0
      vertex 6.6 -38.8 0
      vertex 20.4349 -9.25 0
    endloop
  endfacet
  facet normal 0 0 -1
    outer loop
      vertex 17.6 -38.8 0
      vertex 22.6 -48.8 0
      vertex 17.6 -48.8 0
    endloop
  endfacet
  facet normal 0 0 -1
    outer loop
      vertex -3 -55.8 0
      vertex 22.6 -48.8 0
      vertex 48.2 -55.8 0
    endloop
  endfacet
  facet normal -0 0 -1
    outer loop
      vertex 22.6 -48.8 0
      vertex -3 -55.8 0
      vertex 17.6 -48.8 0
    endloop
  endfacet
  facet normal 0 0 -1
    outer loop
      vertex 14.6 -48.8 0
      vertex 9.6 -48.8 0
      vertex 14.6 -38.8 0
    endloop
  endfacet
  facet normal -0 0 -1
    outer loop
      vertex 17.6 -48.8 0
      vertex -3 -55.8 0
      vertex 14.6 -48.8 0
    endloop
  endfacet
  facet normal -0 0 -1
    outer loop
      vertex 14.6 -48.8 0
      vertex -3 -55.8 0
      vertex 9.6 -48.8 0
    endloop
  endfacet
  facet normal -0 0 -1
    outer loop
      vertex 6.6 -48.8 0
      vertex -3 -55.8 0
      vertex 6.6 -38.8 0
    endloop
  endfacet
  facet normal -0 0 -1
    outer loop
      vertex 9.6 -48.8 0
      vertex -3 -55.8 0
      vertex 6.6 -48.8 0
    endloop
  endfacet
  facet normal 0 0 -1
    outer loop
      vertex 48.2 -55.8 0
      vertex 41.6 -38.8 0
      vertex 48.2 3 0
    endloop
  endfacet
  facet normal 0 0 -1
    outer loop
      vertex 25.0786 -8.32631 0
      vertex 41.6 -38.8 0
      vertex 38.6 -38.8 0
    endloop
  endfacet
  facet normal 0 0 -1
    outer loop
      vertex 33.6 -38.8 0
      vertex 38.6 -38.8 0
      vertex 33.6 -48.8 0
    endloop
  endfacet
  facet normal 0 0 -1
    outer loop
      vertex 25.0786 -8.32631 0
      vertex 38.6 -38.8 0
      vertex 33.6 -38.8 0
    endloop
  endfacet
  facet normal 0 0 -1
    outer loop
      vertex 25.0786 -8.32631 0
      vertex 33.6 -38.8 0
      vertex 30.6 -38.8 0
    endloop
  endfacet
  facet normal 0 0 -1
    outer loop
      vertex 25.6 -38.8 0
      vertex 30.6 -38.8 0
      vertex 25.6 -48.8 0
    endloop
  endfacet
  facet normal 0 0 -1
    outer loop
      vertex 23.5567 -10.3097 0
      vertex 30.6 -38.8 0
      vertex 25.6 -38.8 0
    endloop
  endfacet
  facet normal 0 0 -1
    outer loop
      vertex 25.0786 -8.32631 0
      vertex 48.2 3 0
      vertex 41.6 -38.8 0
    endloop
  endfacet
  facet normal 0 0 -1
    outer loop
      vertex 25.0786 -7.67368 0
      vertex 48.2 3 0
      vertex 25.1 -8 0
    endloop
  endfacet
  facet normal 0 0 -1
    outer loop
      vertex 25.0148 -7.35295 0
      vertex 48.2 3 0
      vertex 25.0786 -7.67368 0
    endloop
  endfacet
  facet normal 0 0 -1
    outer loop
      vertex 24.9097 -7.04329 0
      vertex 48.2 3 0
      vertex 25.0148 -7.35295 0
    endloop
  endfacet
  facet normal 0 0 -1
    outer loop
      vertex 24.7651 -6.75 0
      vertex 48.2 3 0
      vertex 24.9097 -7.04329 0
    endloop
  endfacet
  facet normal 0 0 -1
    outer loop
      vertex 24.5834 -6.4781 0
      vertex 48.2 3 0
      vertex 24.7651 -6.75 0
    endloop
  endfacet
  facet normal 0 0 -1
    outer loop
      vertex 24.3678 -6.23223 0
      vertex 48.2 3 0
      vertex 24.5834 -6.4781 0
    endloop
  endfacet
  facet normal 0 0 -1
    outer loop
      vertex 24.1219 -6.01662 0
      vertex 48.2 3 0
      vertex 24.3678 -6.23223 0
    endloop
  endfacet
  facet normal 0 0 -1
    outer loop
      vertex 23.85 -5.83494 0
      vertex 48.2 3 0
      vertex 24.1219 -6.01662 0
    endloop
  endfacet
  facet normal 0 0 -1
    outer loop
      vertex 23.5567 -5.6903 0
      vertex 48.2 3 0
      vertex 23.85 -5.83494 0
    endloop
  endfacet
  facet normal 0 0 -1
    outer loop
      vertex 23.247 -5.58519 0
      vertex 48.2 3 0
      vertex 23.5567 -5.6903 0
    endloop
  endfacet
  facet normal 0 0 -1
    outer loop
      vertex 22.9263 -5.52139 0
      vertex 48.2 3 0
      vertex 23.247 -5.58519 0
    endloop
  endfacet
  facet normal 0 0 -1
    outer loop
      vertex 22.6 -5.5 0
      vertex 48.2 3 0
      vertex 22.9263 -5.52139 0
    endloop
  endfacet
  facet normal 0 0 -1
    outer loop
      vertex -3 3 0
      vertex 22.6 -5.5 0
      vertex 22.2737 -5.52139 0
    endloop
  endfacet
  facet normal 0 0 -1
    outer loop
      vertex -3 3 0
      vertex 22.2737 -5.52139 0
      vertex 21.953 -5.58519 0
    endloop
  endfacet
  facet normal -0 0 -1
    outer loop
      vertex 20.4349 -9.25 0
      vertex 6.6 -38.8 0
      vertex 20.2903 -8.95671 0
    endloop
  endfacet
  facet normal 0 0 -1
    outer loop
      vertex -3 3 0
      vertex 20.2903 -8.95671 0
      vertex 6.6 -38.8 0
    endloop
  endfacet
  facet normal 0 0 -1
    outer loop
      vertex 20.2903 -8.95671 0
      vertex -3 3 0
      vertex 20.1852 -8.64705 0
    endloop
  endfacet
  facet normal 0 0 -1
    outer loop
      vertex 9.6 -38.8 0
      vertex 14.6 -38.8 0
      vertex 9.6 -48.8 0
    endloop
  endfacet
  facet normal 0 0 -1
    outer loop
      vertex 20.1852 -8.64705 0
      vertex -3 3 0
      vertex 20.1214 -8.32631 0
    endloop
  endfacet
  facet normal 0 0 -1
    outer loop
      vertex 20.1214 -8.32631 0
      vertex -3 3 0
      vertex 20.1 -8 0
    endloop
  endfacet
  facet normal 0 0 -1
    outer loop
      vertex 20.1 -8 0
      vertex -3 3 0
      vertex 20.1214 -7.67368 0
    endloop
  endfacet
  facet normal 0 0 -1
    outer loop
      vertex 20.1214 -7.67368 0
      vertex -3 3 0
      vertex 20.1852 -7.35295 0
    endloop
  endfacet
  facet normal 0 0 -1
    outer loop
      vertex -3 3 0
      vertex 6.6 -38.8 0
      vertex -3 -55.8 0
    endloop
  endfacet
  facet normal 0 0 -1
    outer loop
      vertex 22.6 -5.5 0
      vertex -3 3 0
      vertex 48.2 3 0
    endloop
  endfacet
  facet normal 0 0 -1
    outer loop
      vertex 21.6433 -5.6903 0
      vertex -3 3 0
      vertex 21.953 -5.58519 0
    endloop
  endfacet
  facet normal 0 0 -1
    outer loop
      vertex 21.35 -5.83494 0
      vertex -3 3 0
      vertex 21.6433 -5.6903 0
    endloop
  endfacet
  facet normal 0 0 -1
    outer loop
      vertex 21.0781 -6.01662 0
      vertex -3 3 0
      vertex 21.35 -5.83494 0
    endloop
  endfacet
  facet normal 0 0 -1
    outer loop
      vertex 20.8322 -6.23223 0
      vertex -3 3 0
      vertex 21.0781 -6.01662 0
    endloop
  endfacet
  facet normal 0 0 -1
    outer loop
      vertex 20.6166 -6.4781 0
      vertex -3 3 0
      vertex 20.8322 -6.23223 0
    endloop
  endfacet
  facet normal 0 0 -1
    outer loop
      vertex 20.4349 -6.75 0
      vertex -3 3 0
      vertex 20.6166 -6.4781 0
    endloop
  endfacet
  facet normal 0 0 -1
    outer loop
      vertex 20.2903 -7.04329 0
      vertex -3 3 0
      vertex 20.4349 -6.75 0
    endloop
  endfacet
  facet normal 0 0 -1
    outer loop
      vertex 20.1852 -7.35295 0
      vertex -3 3 0
      vertex 20.2903 -7.04329 0
    endloop
  endfacet
  facet normal -1 0 0
    outer loop
      vertex 9.6 -48.8 0
      vertex 9.6 -38.8 1.6
      vertex 9.6 -38.8 0
    endloop
  endfacet
  facet normal -1 -0 0
    outer loop
      vertex 9.6 -38.8 1.6
      vertex 9.6 -48.8 0
      vertex 9.6 -48.8 1.6
    endloop
  endfacet
  facet normal 0 1 -0
    outer loop
      vertex 9.6 -48.8 0
      vertex 6.6 -48.8 1.6
      vertex 9.6 -48.8 1.6
    endloop
  endfacet
  facet normal 0 1 0
    outer loop
      vertex 6.6 -48.8 1.6
      vertex 9.6 -48.8 0
      vertex 6.6 -48.8 0
    endloop
  endfacet
  facet normal 0 -1 0
    outer loop
      vertex 6.6 -38.8 0
      vertex 9.6 -38.8 1.6
      vertex 6.6 -38.8 1.6
    endloop
  endfacet
  facet normal 0 -1 -0
    outer loop
      vertex 9.6 -38.8 1.6
      vertex 6.6 -38.8 0
      vertex 9.6 -38.8 0
    endloop
  endfacet
  facet normal 1 -0 0
    outer loop
      vertex 6.6 -48.8 1.6
      vertex 6.6 -38.8 0
      vertex 6.6 -38.8 1.6
    endloop
  endfacet
  facet normal 1 0 0
    outer loop
      vertex 6.6 -38.8 0
      vertex 6.6 -48.8 1.6
      vertex 6.6 -48.8 0
    endloop
  endfacet
  facet normal -1 0 0
    outer loop
      vertex 17.6 -48.8 0
      vertex 17.6 -38.8 1.6
      vertex 17.6 -38.8 0
    endloop
  endfacet
  facet normal -1 -0 0
    outer loop
      vertex 17.6 -38.8 1.6
      vertex 17.6 -48.8 0
      vertex 17.6 -48.8 1.6
    endloop
  endfacet
  facet normal 0 1 -0
    outer loop
      vertex 17.6 -48.8 0
      vertex 14.6 -48.8 1.6
      vertex 17.6 -48.8 1.6
    endloop
  endfacet
  facet normal 0 1 0
    outer loop
      vertex 14.6 -48.8 1.6
      vertex 17.6 -48.8 0
      vertex 14.6 -48.8 0
    endloop
  endfacet
  facet normal 0 -1 0
    outer loop
      vertex 14.6 -38.8 0
      vertex 17.6 -38.8 1.6
      vertex 14.6 -38.8 1.6
    endloop
  endfacet
  facet normal 0 -1 -0
    outer loop
      vertex 17.6 -38.8 1.6
      vertex 14.6 -38.8 0
      vertex 17.6 -38.8 0
    endloop
  endfacet
  facet normal 1 -0 0
    outer loop
      vertex 14.6 -48.8 1.6
      vertex 14.6 -38.8 0
      vertex 14.6 -38.8 1.6
    endloop
  endfacet
  facet normal 1 0 0
    outer loop
      vertex 14.6 -38.8 0
      vertex 14.6 -48.8 1.6
      vertex 14.6 -48.8 0
    endloop
  endfacet
  facet normal -1 0 0
    outer loop
      vertex 25.6 -48.8 0
      vertex 25.6 -38.8 1.6
      vertex 25.6 -38.8 0
    endloop
  endfacet
  facet normal -1 -0 0
    outer loop
      vertex 25.6 -38.8 1.6
      vertex 25.6 -48.8 0
      vertex 25.6 -48.8 1.6
    endloop
  endfacet
  facet normal 0 1 -0
    outer loop
      vertex 25.6 -48.8 0
      vertex 22.6 -48.8 1.6
      vertex 25.6 -48.8 1.6
    endloop
  endfacet
  facet normal 0 1 0
    outer loop
      vertex 22.6 -48.8 1.6
      vertex 25.6 -48.8 0
      vertex 22.6 -48.8 0
    endloop
  endfacet
  facet normal 0 -1 0
    outer loop
      vertex 22.6 -38.8 0
      vertex 25.6 -38.8 1.6
      vertex 22.6 -38.8 1.6
    endloop
  endfacet
  facet normal 0 -1 -0
    outer loop
      vertex 25.6 -38.8 1.6
      vertex 22.6 -38.8 0
      vertex 25.6 -38.8 0
    endloop
  endfacet
  facet normal 1 -0 0
    outer loop
      vertex 22.6 -48.8 1.6
      vertex 22.6 -38.8 0
      vertex 22.6 -38.8 1.6
    endloop
  endfacet
  facet normal 1 0 0
    outer loop
      vertex 22.6 -38.8 0
      vertex 22.6 -48.8 1.6
      vertex 22.6 -48.8 0
    endloop
  endfacet
  facet normal -1 0 0
    outer loop
      vertex 33.6 -48.8 0
      vertex 33.6 -38.8 1.6
      vertex 33.6 -38.8 0
    endloop
  endfacet
  facet normal -1 -0 0
    outer loop
      vertex 33.6 -38.8 1.6
      vertex 33.6 -48.8 0
      vertex 33.6 -48.8 1.6
    endloop
  endfacet
  facet normal 0 1 -0
    outer loop
      vertex 33.6 -48.8 0
      vertex 30.6 -48.8 1.6
      vertex 33.6 -48.8 1.6
    endloop
  endfacet
  facet normal 0 1 0
    outer loop
      vertex 30.6 -48.8 1.6
      vertex 33.6 -48.8 0
      vertex 30.6 -48.8 0
    endloop
  endfacet
  facet normal 0 -1 0
    outer loop
      vertex 30.6 -38.8 0
      vertex 33.6 -38.8 1.6
      vertex 30.6 -38.8 1.6
    endloop
  endfacet
  facet normal 0 -1 -0
    outer loop
      vertex 33.6 -38.8 1.6
      vertex 30.6 -38.8 0
      vertex 33.6 -38.8 0
    endloop
  endfacet
  facet normal 1 -0 0
    outer loop
      vertex 30.6 -48.8 1.6
      vertex 30.6 -38.8 0
      vertex 30.6 -38.8 1.6
    endloop
  endfacet
  facet normal 1 0 0
    outer loop
      vertex 30.6 -38.8 0
      vertex 30.6 -48.8 1.6
      vertex 30.6 -48.8 0
    endloop
  endfacet
  facet normal -1 0 0
    outer loop
      vertex 41.6 -48.8 0
      vertex 41.6 -38.8 1.6
      vertex 41.6 -38.8 0
    endloop
  endfacet
  facet normal -1 -0 0
    outer loop
      vertex 41.6 -38.8 1.6
      vertex 41.6 -48.8 0
      vertex 41.6 -48.8 1.6
    endloop
  endfacet
  facet normal 0 1 -0
    outer loop
      vertex 41.6 -48.8 0
      vertex 38.6 -48.8 1.6
      vertex 41.6 -48.8 1.6
    endloop
  endfacet
  facet normal 0 1 0
    outer loop
      vertex 38.6 -48.8 1.6
      vertex 41.6 -48.8 0
      vertex 38.6 -48.8 0
    endloop
  endfacet
  facet normal 0 -1 0
    outer loop
      vertex 38.6 -38.8 0
      vertex 41.6 -38.8 1.6
      vertex 38.6 -38.8 1.6
    endloop
  endfacet
  facet normal 0 -1 -0
    outer loop
      vertex 41.6 -38.8 1.6
      vertex 38.6 -38.8 0
      vertex 41.6 -38.8 0
    endloop
  endfacet
  facet normal 1 -0 0
    outer loop
      vertex 38.6 -48.8 1.6
      vertex 38.6 -38.8 0
      vertex 38.6 -38.8 1.6
    endloop
  endfacet
  facet normal 1 0 0
    outer loop
      vertex 38.6 -38.8 0
      vertex 38.6 -48.8 1.6
      vertex 38.6 -48.8 0
    endloop
  endfacet
  facet normal -0.980784 -0.195099 0
    outer loop
      vertex 25.0786 -7.67368 0
      vertex 25.0148 -7.35295 1.6
      vertex 25.0148 -7.35295 0
    endloop
  endfacet
  facet normal -0.980784 -0.195099 0
    outer loop
      vertex 25.0148 -7.35295 1.6
      vertex 25.0786 -7.67368 0
      vertex 25.0786 -7.67368 1.6
    endloop
  endfacet
  facet normal -0.997857 -0.0654392 0
    outer loop
      vertex 25.1 -8 0
      vertex 25.0786 -7.67368 1.6
      vertex 25.0786 -7.67368 0
    endloop
  endfacet
  facet normal -0.997857 -0.0654392 0
    outer loop
      vertex 25.0786 -7.67368 1.6
      vertex 25.1 -8 0
      vertex 25.1 -8 1.6
    endloop
  endfacet
  facet normal 0.659279 0.751898 -0
    outer loop
      vertex 21.0781 -9.98338 0
      vertex 20.8322 -9.76777 1.6
      vertex 21.0781 -9.98338 1.6
    endloop
  endfacet
  facet normal 0.659279 0.751898 0
    outer loop
      vertex 20.8322 -9.76777 1.6
      vertex 21.0781 -9.98338 0
      vertex 20.8322 -9.76777 0
    endloop
  endfacet
  facet normal -0.831438 0.555617 0
    outer loop
      vertex 24.5834 -9.5219 0
      vertex 24.7651 -9.25 1.6
      vertex 24.7651 -9.25 0
    endloop
  endfacet
  facet normal -0.831438 0.555617 0
    outer loop
      vertex 24.7651 -9.25 1.6
      vertex 24.5834 -9.5219 0
      vertex 24.5834 -9.5219 1.6
    endloop
  endfacet
  facet normal -0.831438 -0.555617 0
    outer loop
      vertex 24.7651 -6.75 0
      vertex 24.5834 -6.4781 1.6
      vertex 24.5834 -6.4781 0
    endloop
  endfacet
  facet normal -0.831438 -0.555617 0
    outer loop
      vertex 24.5834 -6.4781 1.6
      vertex 24.7651 -6.75 0
      vertex 24.7651 -6.75 1.6
    endloop
  endfacet
  facet normal 0.946944 0.321397 0
    outer loop
      vertex 20.2903 -8.95671 1.6
      vertex 20.1852 -8.64705 0
      vertex 20.1852 -8.64705 1.6
    endloop
  endfacet
  facet normal 0.946944 0.321397 0
    outer loop
      vertex 20.1852 -8.64705 0
      vertex 20.2903 -8.95671 1.6
      vertex 20.2903 -8.95671 0
    endloop
  endfacet
  facet normal 0.980785 0.195093 0
    outer loop
      vertex 20.1852 -8.64705 1.6
      vertex 20.1214 -8.32631 0
      vertex 20.1214 -8.32631 1.6
    endloop
  endfacet
  facet normal 0.980785 0.195093 0
    outer loop
      vertex 20.1214 -8.32631 0
      vertex 20.1852 -8.64705 1.6
      vertex 20.1852 -8.64705 0
    endloop
  endfacet
  facet normal 0.321387 -0.946948 0
    outer loop
      vertex 21.6433 -5.6903 0
      vertex 21.953 -5.58519 1.6
      vertex 21.6433 -5.6903 1.6
    endloop
  endfacet
  facet normal 0.321387 -0.946948 0
    outer loop
      vertex 21.953 -5.58519 1.6
      vertex 21.6433 -5.6903 0
      vertex 21.953 -5.58519 0
    endloop
  endfacet
  facet normal -0.659279 -0.751898 0
    outer loop
      vertex 24.1219 -6.01662 0
      vertex 24.3678 -6.23223 1.6
      vertex 24.1219 -6.01662 1.6
    endloop
  endfacet
  facet normal -0.659279 -0.751898 -0
    outer loop
      vertex 24.3678 -6.23223 1.6
      vertex 24.1219 -6.01662 0
      vertex 24.3678 -6.23223 0
    endloop
  endfacet
  facet normal -0.946944 0.321397 0
    outer loop
      vertex 24.9097 -8.95671 0
      vertex 25.0148 -8.64705 1.6
      vertex 25.0148 -8.64705 0
    endloop
  endfacet
  facet normal -0.946944 0.321397 0
    outer loop
      vertex 25.0148 -8.64705 1.6
      vertex 24.9097 -8.95671 0
      vertex 24.9097 -8.95671 1.6
    endloop
  endfacet
  facet normal -0.195116 -0.98078 0
    outer loop
      vertex 22.9263 -5.52139 0
      vertex 23.247 -5.58519 1.6
      vertex 22.9263 -5.52139 1.6
    endloop
  endfacet
  facet normal -0.195116 -0.98078 -0
    outer loop
      vertex 23.247 -5.58519 1.6
      vertex 22.9263 -5.52139 0
      vertex 23.247 -5.58519 0
    endloop
  endfacet
  facet normal 0.195116 0.98078 -0
    outer loop
      vertex 22.2737 -10.4786 0
      vertex 21.953 -10.4148 1.6
      vertex 22.2737 -10.4786 1.6
    endloop
  endfacet
  facet normal 0.195116 0.98078 0
    outer loop
      vertex 21.953 -10.4148 1.6
      vertex 22.2737 -10.4786 0
      vertex 21.953 -10.4148 0
    endloop
  endfacet
  facet normal 0.751873 0.659307 0
    outer loop
      vertex 20.8322 -9.76777 1.6
      vertex 20.6166 -9.5219 0
      vertex 20.6166 -9.5219 1.6
    endloop
  endfacet
  facet normal 0.751873 0.659307 0
    outer loop
      vertex 20.6166 -9.5219 0
      vertex 20.8322 -9.76777 1.6
      vertex 20.8322 -9.76777 0
    endloop
  endfacet
  facet normal -0.0654432 0.997856 0
    outer loop
      vertex 22.9263 -10.4786 0
      vertex 22.6 -10.5 1.6
      vertex 22.9263 -10.4786 1.6
    endloop
  endfacet
  facet normal -0.0654432 0.997856 0
    outer loop
      vertex 22.6 -10.5 1.6
      vertex 22.9263 -10.4786 0
      vertex 22.6 -10.5 0
    endloop
  endfacet
  facet normal -0.659279 0.751898 0
    outer loop
      vertex 24.3678 -9.76777 0
      vertex 24.1219 -9.98338 1.6
      vertex 24.3678 -9.76777 1.6
    endloop
  endfacet
  facet normal -0.659279 0.751898 0
    outer loop
      vertex 24.1219 -9.98338 1.6
      vertex 24.3678 -9.76777 0
      vertex 24.1219 -9.98338 0
    endloop
  endfacet
  facet normal -0.751873 0.659307 0
    outer loop
      vertex 24.3678 -9.76777 0
      vertex 24.5834 -9.5219 1.6
      vertex 24.5834 -9.5219 0
    endloop
  endfacet
  facet normal -0.751873 0.659307 0
    outer loop
      vertex 24.5834 -9.5219 1.6
      vertex 24.3678 -9.76777 0
      vertex 24.3678 -9.76777 1.6
    endloop
  endfacet
  facet normal -0.321387 -0.946948 0
    outer loop
      vertex 23.247 -5.58519 0
      vertex 23.5567 -5.6903 1.6
      vertex 23.247 -5.58519 1.6
    endloop
  endfacet
  facet normal -0.321387 -0.946948 -0
    outer loop
      vertex 23.5567 -5.6903 1.6
      vertex 23.247 -5.58519 0
      vertex 23.5567 -5.6903 0
    endloop
  endfacet
  facet normal 0.44229 -0.896872 0
    outer loop
      vertex 21.35 -5.83494 0
      vertex 21.6433 -5.6903 1.6
      vertex 21.35 -5.83494 1.6
    endloop
  endfacet
  facet normal 0.44229 -0.896872 0
    outer loop
      vertex 21.6433 -5.6903 1.6
      vertex 21.35 -5.83494 0
      vertex 21.6433 -5.6903 0
    endloop
  endfacet
  facet normal -0.555575 -0.831466 0
    outer loop
      vertex 23.85 -5.83494 0
      vertex 24.1219 -6.01662 1.6
      vertex 23.85 -5.83494 1.6
    endloop
  endfacet
  facet normal -0.555575 -0.831466 -0
    outer loop
      vertex 24.1219 -6.01662 1.6
      vertex 23.85 -5.83494 0
      vertex 24.1219 -6.01662 0
    endloop
  endfacet
  facet normal -0.896915 0.442204 0
    outer loop
      vertex 24.7651 -9.25 0
      vertex 24.9097 -8.95671 1.6
      vertex 24.9097 -8.95671 0
    endloop
  endfacet
  facet normal -0.896915 0.442204 0
    outer loop
      vertex 24.9097 -8.95671 1.6
      vertex 24.7651 -9.25 0
      vertex 24.7651 -9.25 1.6
    endloop
  endfacet
  facet normal 0.896915 -0.442204 0
    outer loop
      vertex 20.2903 -7.04329 1.6
      vertex 20.4349 -6.75 0
      vertex 20.4349 -6.75 1.6
    endloop
  endfacet
  facet normal 0.896915 -0.442204 0
    outer loop
      vertex 20.4349 -6.75 0
      vertex 20.2903 -7.04329 1.6
      vertex 20.2903 -7.04329 0
    endloop
  endfacet
  facet normal -0.32136 0.946957 0
    outer loop
      vertex 23.5567 -10.3097 0
      vertex 23.247 -10.4148 1.6
      vertex 23.5567 -10.3097 1.6
    endloop
  endfacet
  facet normal -0.32136 0.946957 0
    outer loop
      vertex 23.247 -10.4148 1.6
      vertex 23.5567 -10.3097 0
      vertex 23.247 -10.4148 0
    endloop
  endfacet
  facet normal -0.44229 -0.896872 0
    outer loop
      vertex 23.5567 -5.6903 0
      vertex 23.85 -5.83494 1.6
      vertex 23.5567 -5.6903 1.6
    endloop
  endfacet
  facet normal -0.44229 -0.896872 -0
    outer loop
      vertex 23.85 -5.83494 1.6
      vertex 23.5567 -5.6903 0
      vertex 23.85 -5.83494 0
    endloop
  endfacet
  facet normal -0.0654128 -0.997858 0
    outer loop
      vertex 22.6 -5.5 0
      vertex 22.9263 -5.52139 1.6
      vertex 22.6 -5.5 1.6
    endloop
  endfacet
  facet normal -0.0654128 -0.997858 -0
    outer loop
      vertex 22.9263 -5.52139 1.6
      vertex 22.6 -5.5 0
      vertex 22.9263 -5.52139 0
    endloop
  endfacet
  facet normal 0.946944 -0.321397 0
    outer loop
      vertex 20.1852 -7.35295 1.6
      vertex 20.2903 -7.04329 0
      vertex 20.2903 -7.04329 1.6
    endloop
  endfacet
  facet normal 0.946944 -0.321397 0
    outer loop
      vertex 20.2903 -7.04329 0
      vertex 20.1852 -7.35295 1.6
      vertex 20.1852 -7.35295 0
    endloop
  endfacet
  facet normal 0.195116 -0.98078 0
    outer loop
      vertex 21.953 -5.58519 0
      vertex 22.2737 -5.52139 1.6
      vertex 21.953 -5.58519 1.6
    endloop
  endfacet
  facet normal 0.195116 -0.98078 0
    outer loop
      vertex 22.2737 -5.52139 1.6
      vertex 21.953 -5.58519 0
      vertex 22.2737 -5.52139 0
    endloop
  endfacet
  facet normal 0.896915 0.442204 0
    outer loop
      vertex 20.4349 -9.25 1.6
      vertex 20.2903 -8.95671 0
      vertex 20.2903 -8.95671 1.6
    endloop
  endfacet
  facet normal 0.896915 0.442204 0
    outer loop
      vertex 20.2903 -8.95671 0
      vertex 20.4349 -9.25 1.6
      vertex 20.4349 -9.25 0
    endloop
  endfacet
  facet normal -0.555659 0.83141 0
    outer loop
      vertex 24.1219 -9.98338 0
      vertex 23.85 -10.1651 1.6
      vertex 24.1219 -9.98338 1.6
    endloop
  endfacet
  facet normal -0.555659 0.83141 0
    outer loop
      vertex 23.85 -10.1651 1.6
      vertex 24.1219 -9.98338 0
      vertex 23.85 -10.1651 0
    endloop
  endfacet
  facet normal -0.442191 0.896921 0
    outer loop
      vertex 23.85 -10.1651 0
      vertex 23.5567 -10.3097 1.6
      vertex 23.85 -10.1651 1.6
    endloop
  endfacet
  facet normal -0.442191 0.896921 0
    outer loop
      vertex 23.5567 -10.3097 1.6
      vertex 23.85 -10.1651 0
      vertex 23.5567 -10.3097 0
    endloop
  endfacet
  facet normal 0.997857 -0.0654392 0
    outer loop
      vertex 20.1 -8 1.6
      vertex 20.1214 -7.67368 0
      vertex 20.1214 -7.67368 1.6
    endloop
  endfacet
  facet normal 0.997857 -0.0654392 0
    outer loop
      vertex 20.1214 -7.67368 0
      vertex 20.1 -8 1.6
      vertex 20.1 -8 0
    endloop
  endfacet
  facet normal 0.555575 -0.831466 0
    outer loop
      vertex 21.0781 -6.01662 0
      vertex 21.35 -5.83494 1.6
      vertex 21.0781 -6.01662 1.6
    endloop
  endfacet
  facet normal 0.555575 -0.831466 0
    outer loop
      vertex 21.35 -5.83494 1.6
      vertex 21.0781 -6.01662 0
      vertex 21.35 -5.83494 0
    endloop
  endfacet
  facet normal 0.831438 0.555617 0
    outer loop
      vertex 20.6166 -9.5219 1.6
      vertex 20.4349 -9.25 0
      vertex 20.4349 -9.25 1.6
    endloop
  endfacet
  facet normal 0.831438 0.555617 0
    outer loop
      vertex 20.4349 -9.25 0
      vertex 20.6166 -9.5219 1.6
      vertex 20.6166 -9.5219 0
    endloop
  endfacet
  facet normal -0.980785 0.195093 0
    outer loop
      vertex 25.0148 -8.64705 0
      vertex 25.0786 -8.32631 1.6
      vertex 25.0786 -8.32631 0
    endloop
  endfacet
  facet normal -0.980785 0.195093 0
    outer loop
      vertex 25.0786 -8.32631 1.6
      vertex 25.0148 -8.64705 0
      vertex 25.0148 -8.64705 1.6
    endloop
  endfacet
  facet normal 0.32136 0.946957 -0
    outer loop
      vertex 21.953 -10.4148 0
      vertex 21.6433 -10.3097 1.6
      vertex 21.953 -10.4148 1.6
    endloop
  endfacet
  facet normal 0.32136 0.946957 0
    outer loop
      vertex 21.6433 -10.3097 1.6
      vertex 21.953 -10.4148 0
      vertex 21.6433 -10.3097 0
    endloop
  endfacet
  facet normal 0.751873 -0.659307 0
    outer loop
      vertex 20.6166 -6.4781 1.6
      vertex 20.8322 -6.23223 0
      vertex 20.8322 -6.23223 1.6
    endloop
  endfacet
  facet normal 0.751873 -0.659307 0
    outer loop
      vertex 20.8322 -6.23223 0
      vertex 20.6166 -6.4781 1.6
      vertex 20.6166 -6.4781 0
    endloop
  endfacet
  facet normal 0.997856 0.0654412 0
    outer loop
      vertex 20.1214 -8.32631 1.6
      vertex 20.1 -8 0
      vertex 20.1 -8 1.6
    endloop
  endfacet
  facet normal 0.997856 0.0654412 0
    outer loop
      vertex 20.1 -8 0
      vertex 20.1214 -8.32631 1.6
      vertex 20.1214 -8.32631 0
    endloop
  endfacet
  facet normal -0.896915 -0.442204 0
    outer loop
      vertex 24.9097 -7.04329 0
      vertex 24.7651 -6.75 1.6
      vertex 24.7651 -6.75 0
    endloop
  endfacet
  facet normal -0.896915 -0.442204 0
    outer loop
      vertex 24.7651 -6.75 1.6
      vertex 24.9097 -7.04329 0
      vertex 24.9097 -7.04329 1.6
    endloop
  endfacet
  facet normal -0.997856 0.0654412 0
    outer loop
      vertex 25.0786 -8.32631 0
      vertex 25.1 -8 1.6
      vertex 25.1 -8 0
    endloop
  endfacet
  facet normal -0.997856 0.0654412 0
    outer loop
      vertex 25.1 -8 1.6
      vertex 25.0786 -8.32631 0
      vertex 25.0786 -8.32631 1.6
    endloop
  endfacet
  facet normal 0.0654432 0.997856 -0
    outer loop
      vertex 22.6 -10.5 0
      vertex 22.2737 -10.4786 1.6
      vertex 22.6 -10.5 1.6
    endloop
  endfacet
  facet normal 0.0654432 0.997856 0
    outer loop
      vertex 22.2737 -10.4786 1.6
      vertex 22.6 -10.5 0
      vertex 22.2737 -10.4786 0
    endloop
  endfacet
  facet normal -0.751873 -0.659307 0
    outer loop
      vertex 24.5834 -6.4781 0
      vertex 24.3678 -6.23223 1.6
      vertex 24.3678 -6.23223 0
    endloop
  endfacet
  facet normal -0.751873 -0.659307 0
    outer loop
      vertex 24.3678 -6.23223 1.6
      vertex 24.5834 -6.4781 0
      vertex 24.5834 -6.4781 1.6
    endloop
  endfacet
  facet normal 0.659279 -0.751898 0
    outer loop
      vertex 20.8322 -6.23223 0
      vertex 21.0781 -6.01662 1.6
      vertex 20.8322 -6.23223 1.6
    endloop
  endfacet
  facet normal 0.659279 -0.751898 0
    outer loop
      vertex 21.0781 -6.01662 1.6
      vertex 20.8322 -6.23223 0
      vertex 21.0781 -6.01662 0
    endloop
  endfacet
  facet normal -0.946944 -0.321397 0
    outer loop
      vertex 25.0148 -7.35295 0
      vertex 24.9097 -7.04329 1.6
      vertex 24.9097 -7.04329 0
    endloop
  endfacet
  facet normal -0.946944 -0.321397 0
    outer loop
      vertex 24.9097 -7.04329 1.6
      vertex 25.0148 -7.35295 0
      vertex 25.0148 -7.35295 1.6
    endloop
  endfacet
  facet normal 0.442191 0.896921 -0
    outer loop
      vertex 21.6433 -10.3097 0
      vertex 21.35 -10.1651 1.6
      vertex 21.6433 -10.3097 1.6
    endloop
  endfacet
  facet normal 0.442191 0.896921 0
    outer loop
      vertex 21.35 -10.1651 1.6
      vertex 21.6433 -10.3097 0
      vertex 21.35 -10.1651 0
    endloop
  endfacet
  facet normal 0.980784 -0.195099 0
    outer loop
      vertex 20.1214 -7.67368 1.6
      vertex 20.1852 -7.35295 0
      vertex 20.1852 -7.35295 1.6
    endloop
  endfacet
  facet normal 0.980784 -0.195099 0
    outer loop
      vertex 20.1852 -7.35295 0
      vertex 20.1214 -7.67368 1.6
      vertex 20.1214 -7.67368 0
    endloop
  endfacet
  facet normal 0.831438 -0.555617 0
    outer loop
      vertex 20.4349 -6.75 1.6
      vertex 20.6166 -6.4781 0
      vertex 20.6166 -6.4781 1.6
    endloop
  endfacet
  facet normal 0.831438 -0.555617 0
    outer loop
      vertex 20.6166 -6.4781 0
      vertex 20.4349 -6.75 1.6
      vertex 20.4349 -6.75 0
    endloop
  endfacet
  facet normal -0.195116 0.98078 0
    outer loop
      vertex 23.247 -10.4148 0
      vertex 22.9263 -10.4786 1.6
      vertex 23.247 -10.4148 1.6
    endloop
  endfacet
  facet normal -0.195116 0.98078 0
    outer loop
      vertex 22.9263 -10.4786 1.6
      vertex 23.247 -10.4148 0
      vertex 22.9263 -10.4786 0
    endloop
  endfacet
  facet normal 0.0654128 -0.997858 0
    outer loop
      vertex 22.2737 -5.52139 0
      vertex 22.6 -5.5 1.6
      vertex 22.2737 -5.52139 1.6
    endloop
  endfacet
  facet normal 0.0654128 -0.997858 0
    outer loop
      vertex 22.6 -5.5 1.6
      vertex 22.2737 -5.52139 0
      vertex 22.6 -5.5 0
    endloop
  endfacet
  facet normal 0.555659 0.83141 -0
    outer loop
      vertex 21.35 -10.1651 0
      vertex 21.0781 -9.98338 1.6
      vertex 21.35 -10.1651 1.6
    endloop
  endfacet
  facet normal 0.555659 0.83141 0
    outer loop
      vertex 21.0781 -9.98338 1.6
      vertex 21.35 -10.1651 0
      vertex 21.0781 -9.98338 0
    endloop
  endfacet
endsolid OpenSCAD_Model
